<?xml version="1.0" standalone="no"?>
<!DOCTYPE svg PUBLIC "-//W3C//DTD SVG 20010904//EN"
 "http://www.w3.org/TR/2001/REC-SVG-20010904/DTD/svg10.dtd">
<svg version="1.0" xmlns="http://www.w3.org/2000/svg"
 width="456.000000pt" height="502.000000pt" viewBox="0 0 456.000000 502.000000"
 preserveAspectRatio="xMidYMid meet">

<g transform="translate(0.000000,502.000000) scale(0.100000,-0.100000)"
fill="#000000" stroke="none">
<path d="M2565 4919 c233 -28 398 -133 503 -321 26 -46 58 -148 67 -214 l6
-51 -93 -6 c-51 -4 -259 -20 -463 -37 -203 -16 -389 -30 -412 -30 l-42 0 -4
63 -3 62 -2 -63 c-1 -40 -7 -64 -14 -66 -7 -3 -46 -7 -85 -10 l-73 -5 0 82 c0
280 197 522 473 582 34 7 50 14 36 14 -83 3 -244 -76 -342 -167 -39 -37 -90
-80 -112 -94 -49 -34 -171 -155 -163 -163 3 -4 18 6 33 22 l27 28 -17 -27
c-10 -16 -21 -29 -26 -29 -5 -1 -13 -2 -19 -3 -5 0 -17 -11 -25 -23 -14 -20
-14 -23 1 -31 15 -8 14 -11 -7 -18 -13 -4 -67 -10 -119 -14 l-95 -7 75 0 c41
-1 118 2 170 6 l95 6 0 -82 0 -82 -50 -6 c-27 -3 -228 -19 -445 -35 -488 -37
-475 -35 -549 -70 -122 -58 -222 -186 -262 -335 -20 -76 -20 -95 -14 -422 l6
-342 -37 -16 -38 -16 -44 43 c-24 24 -65 75 -91 114 l-47 70 -14 325 c-7 178
-13 344 -13 369 1 38 -1 42 -11 27 -6 -11 -32 -45 -58 -78 -105 -132 -154
-299 -145 -499 4 -94 10 -130 34 -196 52 -145 170 -316 203 -295 8 6 11 13 7
18 -5 4 -11 2 -15 -4 -5 -7 -12 -6 -22 5 -13 14 -12 15 3 9 9 -3 19 -2 22 4 4
5 12 9 18 8 27 -3 36 2 31 16 -4 9 1 18 12 22 16 6 14 9 -11 19 -19 8 -23 13
-12 14 20 0 23 20 5 38 -9 9 -9 12 -1 12 7 0 15 -9 18 -20 3 -11 10 -20 15
-20 6 0 5 11 0 26 -14 36 -11 45 4 11 11 -25 14 -26 25 -13 8 9 9 16 4 16 -5
0 -15 12 -22 26 -12 27 -38 28 -33 0 2 -9 -1 -15 -5 -14 -11 4 -64 -48 -57
-55 3 -2 -7 -12 -21 -21 -14 -9 -23 -22 -20 -29 4 -7 -6 2 -22 20 -39 43 -107
184 -129 263 -22 83 -22 258 0 360 18 84 78 220 98 220 8 0 9 -3 3 -8 -19 -14
-35 -51 -29 -69 4 -13 3 -14 -3 -5 -7 9 -12 6 -21 -13 -15 -32 -15 -48 -2 -40
6 4 10 -5 10 -19 0 -14 5 -26 11 -26 8 0 8 -5 -1 -15 -9 -10 -9 -15 -1 -15 6
0 11 -8 11 -19 0 -10 6 -24 14 -30 12 -10 15 -7 19 21 2 22 4 13 5 -23 1 -31
9 -70 17 -85 8 -16 15 -42 15 -59 1 -105 79 -262 186 -375 l34 -36 -29 -17
c-36 -21 -55 -4 -22 19 12 9 19 20 15 25 -3 6 -17 -2 -30 -16 -19 -21 -22 -30
-14 -40 9 -10 1 -23 -34 -55 -47 -44 -91 -119 -122 -210 -25 -75 -25 -241 0
-325 20 -66 65 -161 96 -205 11 -15 21 -43 21 -62 1 -18 3 -26 6 -17 3 11 37
-18 118 -98 l113 -114 7 -177 c7 -191 20 -262 61 -344 27 -55 109 -148 131
-148 7 0 -10 21 -38 47 -58 54 -115 161 -128 243 -14 83 -21 370 -9 370 6 0
26 13 45 30 l34 30 63 -54 c82 -69 139 -107 381 -253 192 -116 398 -224 516
-273 l57 -23 12 -59 c6 -33 14 -66 17 -74 10 -26 -23 -15 -168 59 -176 89
-217 113 -489 296 -203 136 -310 214 -390 285 -35 31 -35 31 -10 2 36 -41 183
-163 266 -219 l72 -49 4 -133 c3 -129 5 -135 38 -201 59 -114 151 -166 294
-162 l71 1 -90 7 c-68 5 -103 13 -141 33 -62 32 -117 93 -138 154 -17 50 -34
283 -21 283 5 0 68 -40 139 -89 198 -133 414 -255 538 -301 33 -12 33 -12 8
-20 l-25 -8 26 -1 c36 -1 40 -17 46 -203 5 -130 3 -169 -12 -230 -17 -65 -24
-79 -75 -129 -42 -42 -83 -70 -163 -109 -106 -52 -197 -75 -197 -51 0 7 -16
19 -35 27 -99 41 -221 -16 -239 -112 l-6 -29 11 30 c15 39 54 80 94 100 84 39
190 -5 219 -92 21 -62 20 -91 -5 -137 -11 -21 -18 -40 -16 -42 6 -7 47 82 47
104 0 22 18 32 59 32 100 0 267 77 355 164 130 127 176 296 146 535 -6 46 -9
85 -7 88 3 2 43 -2 91 -9 192 -27 344 21 470 151 48 50 76 71 95 72 24 2 24 2
3 6 -13 3 -22 8 -20 11 27 50 68 146 77 178 11 41 11 42 66 46 126 11 200 139
145 252 -12 25 -26 46 -31 46 -5 0 -9 4 -9 9 0 5 23 2 51 -6 36 -11 81 -14
148 -11 86 3 104 7 175 41 186 88 298 290 269 485 -6 34 -7 64 -5 67 3 3 18 5
33 5 15 0 31 4 34 10 3 5 3 140 -1 301 l-7 291 -34 -5 c-38 -7 -39 -3 -14 55
28 65 97 281 121 376 60 241 64 507 11 690 -5 17 -7 32 -3 32 3 0 124 9 269
20 283 22 311 20 383 -23 26 -16 32 -17 22 -4 -8 9 -39 26 -70 38 -57 21 -57
21 -287 5 -126 -9 -251 -19 -277 -22 -41 -5 -49 -3 -54 13 -4 10 -19 47 -35
82 -19 41 -26 67 -19 71 6 3 88 12 183 19 217 15 272 6 372 -59 64 -42 72 -45
45 -16 -13 15 -54 41 -89 59 -63 31 -71 32 -186 32 -66 0 -172 -4 -235 -8
l-115 -8 -32 56 c-18 31 -26 55 -20 56 7 0 5 3 -5 7 -9 4 -53 47 -98 95 -169
181 -363 278 -606 306 -49 5 -102 14 -117 20 -16 6 -67 13 -115 16 l-87 4 80
-10z m262 -45 c-3 -3 -12 -4 -19 -1 -8 3 -5 6 6 6 11 1 17 -2 13 -5z m153 -36
c341 -104 602 -415 676 -807 24 -127 15 -379 -19 -522 -34 -145 -80 -291 -134
-429 -51 -129 -150 -330 -163 -330 -9 0 -63 29 -110 59 l-25 16 33 5 c32 5 35
9 78 115 24 61 44 118 44 127 0 9 3 18 8 21 4 2 1 2 -5 1 -7 -2 -13 1 -13 7 0
6 -4 7 -10 4 -14 -9 -12 7 5 29 8 10 12 23 8 29 -3 6 -1 7 5 3 9 -5 9 -13 2
-26 -13 -25 -13 -30 4 -30 8 0 19 20 26 48 7 26 14 55 17 65 2 9 -1 17 -7 17
-6 0 -13 -13 -16 -30 -4 -16 -10 -30 -15 -30 -14 0 -11 18 7 45 9 14 12 30 8
37 -6 9 -3 9 10 -1 19 -16 30 -8 41 28 5 17 4 21 -5 16 -9 -6 -11 3 -6 36 5
40 5 41 -4 12 -6 -18 -15 -35 -20 -38 -5 -3 -2 13 7 37 8 24 15 52 15 63 -1
15 1 16 8 6 4 -8 6 -20 3 -28 -3 -7 0 -13 6 -13 6 0 11 6 11 13 0 8 4 7 11 -3
8 -12 9 -11 5 5 -10 39 -9 90 3 118 6 16 11 32 11 37 0 5 4 11 9 14 5 3 2 -17
-6 -44 -8 -27 -13 -60 -11 -72 2 -13 11 9 20 52 18 83 19 94 20 192 1 37 5 65
10 62 11 -7 10 73 -3 121 -5 22 -14 58 -20 80 -5 22 -13 49 -18 60 -5 11 -15
41 -22 68 -8 26 -17 47 -22 47 -4 0 -6 3 -3 8 2 4 -2 16 -10 27 -8 10 -14 13
-14 6 0 -7 -24 34 -53 91 -67 131 -108 192 -195 287 -56 62 -66 77 -50 78 14
1 18 -3 14 -13 -4 -10 -2 -12 6 -8 7 4 8 3 4 -4 -5 -8 -2 -10 9 -6 10 4 14 2
10 -7 -3 -8 12 -32 33 -53 59 -62 107 -133 164 -244 29 -56 54 -98 56 -93 3 9
-61 132 -122 234 -20 32 -73 100 -114 143 -7 7 -13 17 -14 21 0 4 -8 18 -18
30 -13 16 -25 21 -49 18 -19 -3 -32 0 -33 8 -4 34 -3 43 6 49 12 8 -12 40 -25
32 -5 -3 -6 3 -2 13 6 16 4 16 -18 -2 -14 -12 -19 -14 -11 -4 12 16 7 48 -7
50 -47 6 -52 5 -46 -10 4 -9 -9 -2 -27 14 -18 17 -35 31 -37 33 -2 1 1 2 7 2
6 0 17 -6 24 -13 13 -14 48 -19 48 -7 0 12 -58 40 -89 42 -18 1 -35 6 -38 11
-7 11 55 -1 137 -25z m20 -63 c11 -13 10 -14 -5 -9 -13 5 -16 4 -11 -4 4 -7 2
-12 -3 -12 -13 0 -13 3 -5 24 8 20 9 20 24 1z m34 -71 c5 -14 4 -15 -9 -4 -17
14 -19 20 -6 20 5 0 12 -7 15 -16z m-1016 -61 c-14 -16 -24 -33 -21 -40 2 -6
-5 -14 -16 -18 -12 -3 -21 -11 -21 -16 0 -6 4 -8 10 -4 5 3 4 -8 -2 -27 -14
-43 -20 -49 -17 -18 1 14 1 34 0 45 -1 17 -3 18 -12 5 -9 -13 -10 -13 -6 0 2
8 12 17 23 18 10 2 24 9 29 14 7 8 4 9 -10 4 -11 -4 -2 8 20 28 48 42 58 46
23 9z m1165 -149 c6 -11 1 -14 -21 -14 -26 0 -31 6 -51 56 -11 31 -21 58 -21
61 0 7 82 -84 93 -103z m-1242 29 c-4 -15 -13 -28 -19 -29 -7 -1 -8 0 -2 3 5
2 10 16 10 29 0 13 4 24 9 24 5 0 6 -12 2 -27z m-37 -18 c-4 -8 -1 -22 6 -30
15 -18 -1 -20 -18 -3 -7 7 -12 8 -12 2 0 -5 6 -16 13 -23 10 -10 8 -11 -7 -5
-13 5 -17 4 -12 -4 4 -7 22 -13 39 -13 26 -1 28 -3 8 -6 -30 -6 -77 17 -59 29
9 5 7 8 -7 8 -12 0 -27 -6 -35 -12 -12 -11 -12 -10 -2 4 7 9 24 19 37 22 13 3
29 15 35 26 13 23 22 27 14 5z m46 -42 c-1 -24 -2 -26 -11 -10 -5 9 -7 22 -4
27 10 17 15 11 15 -17z m1293 -45 c52 -72 50 -78 -28 -78 -57 0 -65 2 -65 19
0 10 -3 39 -6 65 l-7 46 34 0 c29 -1 39 -8 72 -52z m92 -162 c19 -40 35 -78
35 -84 0 -14 -17 -15 -840 -77 -855 -64 -1130 -87 -1160 -97 -151 -48 -271
-177 -309 -333 -9 -35 -12 -143 -10 -365 1 -181 -2 -314 -7 -313 -5 1 -40 14
-79 29 -80 30 -201 41 -281 27 l-51 -10 -7 336 c-7 316 -6 341 13 413 27 103
60 165 127 237 41 44 77 71 128 96 l71 34 595 46 c327 26 836 66 1130 90 294
23 552 43 572 44 37 1 38 0 73 -73z m62 -151 c60 -170 59 -445 -3 -705 -23
-98 -92 -316 -119 -376 -16 -37 -30 -54 -42 -54 -10 0 -41 -3 -70 -6 l-52 -7
-3 231 c-2 127 -5 233 -8 235 -4 4 -509 -65 -565 -78 -19 -4 -20 -11 -17 -240
2 -129 -1 -235 -5 -236 -4 0 -107 -15 -228 -33 l-220 -32 4 -289 c2 -160 6
-293 10 -297 3 -4 96 6 206 22 110 16 212 30 228 30 l27 0 0 -177 c0 -98 3
-202 7 -231 6 -52 7 -54 35 -50 15 3 28 4 28 2 0 -1 -7 -18 -15 -37 -19 -47
-19 -91 1 -143 15 -40 15 -43 -7 -85 -53 -105 -136 -204 -219 -262 -40 -28
-54 -32 -130 -35 -83 -4 -187 7 -262 28 -36 10 -37 12 -74 123 -78 235 -310
746 -375 827 -11 14 -5 -4 14 -40 65 -122 261 -566 310 -705 120 -337 162
-608 121 -774 -39 -155 -121 -260 -262 -334 -65 -34 -200 -77 -242 -77 -18 0
-45 50 -38 70 2 6 39 25 83 43 142 57 248 134 285 206 59 117 53 411 -16 686
-72 288 -270 800 -376 974 -13 20 -17 36 -11 40 6 3 26 20 46 38 l36 32 -25
62 c-93 228 -204 386 -352 500 l-32 25 -6 304 c-4 206 -3 324 5 364 32 171
186 328 346 352 62 9 1912 153 1944 151 19 -2 27 -11 38 -42z m35 0 c9 -20 9
-20 -6 -1 -9 11 -16 27 -15 35 0 14 1 14 6 1 3 -8 10 -24 15 -35z m28 -90 c0
-14 -2 -25 -4 -25 -2 0 -6 11 -8 25 -3 14 -1 25 3 25 5 0 9 -11 9 -25z m7
-162 c-2 -21 -4 -4 -4 37 0 41 2 58 4 38 2 -21 2 -55 0 -75z m20 45 c-2 -13
-4 -3 -4 22 0 25 2 35 4 23 2 -13 2 -33 0 -45z m-3167 -2 c0 -2 -8 -10 -17
-17 -16 -13 -17 -12 -4 4 13 16 21 21 21 13z m3187 -18 c-3 -8 -6 -5 -6 6 -1
11 2 17 5 13 3 -3 4 -12 1 -19z m-3204 -32 c19 3 23 -12 5 -19 -9 -3 -8 -9 5
-19 13 -10 17 -23 14 -43 l-4 -30 -2 33 c-1 29 -10 37 -34 33 -4 -1 -10 6 -13
14 -3 8 -10 12 -16 9 -5 -3 -4 3 3 15 8 11 16 17 19 12 3 -4 13 -7 23 -5z
m3204 -28 c-3 -8 -6 -5 -6 6 -1 11 2 17 5 13 3 -3 4 -12 1 -19z m-8 -38 c0 -9
-4 -8 -9 5 -5 11 -9 27 -9 35 0 9 4 8 9 -5 5 -11 9 -27 9 -35z m-27 -106 c-3
-49 -1 -69 9 -76 12 -8 11 -9 -1 -5 -11 3 -16 22 -18 75 -2 40 1 72 6 72 4 0
6 -30 4 -66z m-3210 -17 c-10 -21 -11 -21 -11 5 -1 14 -4 35 -7 45 -5 13 -1
11 11 -5 13 -18 15 -29 7 -45z m52 39 c-21 -15 -30 -14 -19 3 3 6 14 11 23 11
13 0 13 -2 -4 -14z m29 -231 c5 -181 5 -188 -10 -145 -10 28 -18 98 -21 185
-4 86 -9 128 -13 110 -6 -26 -6 -24 -4 9 4 40 24 65 36 43 4 -7 9 -97 12 -202z
m3156 194 c1 13 4 22 7 18 4 -3 3 -18 0 -34 -6 -21 -9 -24 -17 -12 -5 7 -8 23
-8 34 1 16 2 16 9 -5 l8 -25 1 24z m-3249 -74 c0 -14 -2 -25 -4 -25 -2 0 -6
11 -8 25 -3 14 -1 25 3 25 5 0 9 -11 9 -25z m3220 -26 c0 -6 -4 -7 -10 -4 -5
3 -10 11 -10 16 0 6 5 7 10 4 6 -3 10 -11 10 -16z m-3183 -56 c-3 -10 -5 -4
-5 12 0 17 2 24 5 18 2 -7 2 -21 0 -30z m3164 10 c-8 -15 -10 -15 -11 -2 0 17
10 32 18 25 2 -3 -1 -13 -7 -23z m-8 -48 c4 -8 2 -17 -3 -20 -6 -4 -10 3 -10
14 0 25 6 27 13 6z m-650 -102 c-7 -2 -19 -2 -25 0 -7 3 -2 5 12 5 14 0 19 -2
13 -5z m-48 -8 c-5 -2 -49 -15 -98 -29 -48 -15 -94 -29 -102 -32 -10 -4 -15 0
-15 15 0 12 1 21 3 22 37 11 246 35 212 24z m592 -329 c-9 -17 -22 -44 -28
-61 -6 -16 -13 -25 -16 -19 -2 7 6 29 17 49 20 35 19 66 0 35 -13 -21 -12 -3
1 22 9 17 13 18 20 7 7 -11 9 -9 10 6 0 13 2 15 6 6 3 -8 -1 -28 -10 -45z
m-2377 -22 c98 -35 161 -77 237 -156 54 -57 183 -240 183 -259 0 -4 15 -40 34
-81 53 -116 53 -111 0 -154 -47 -39 -74 -50 -74 -32 0 6 7 8 15 4 15 -6 20 5
8 18 -8 7 -13 28 -17 69 -2 15 -13 38 -25 51 -13 14 -20 29 -16 35 5 10 -7 15
-27 12 -5 0 -8 3 -8 9 0 20 -107 167 -160 218 -30 30 -54 59 -52 64 1 5 -2 7
-8 3 -5 -3 -27 3 -48 14 -20 11 -61 25 -90 30 -249 50 -450 -86 -478 -322 -6
-47 11 -175 22 -164 2 2 -1 29 -7 61 -21 101 12 226 79 304 27 31 79 72 93 72
3 0 7 -96 8 -212 0 -117 4 -275 7 -350 4 -79 3 -138 -2 -138 -17 1 -99 111
-136 182 -21 40 -38 67 -38 60 0 -20 49 -112 90 -167 38 -52 187 -195 202
-195 4 0 8 -5 8 -11 0 -6 -7 -8 -16 -5 -8 3 -13 2 -10 -3 8 -12 -41 -54 -53
-46 -6 3 -11 -1 -11 -9 0 -29 -18 -17 -108 69 -84 80 -166 185 -207 265 -17
34 -17 34 0 20 17 -14 17 -13 11 10 -6 21 -5 22 4 7 6 -9 8 -22 5 -27 -4 -6
-3 -20 1 -32 6 -21 7 -21 20 -3 12 17 14 17 14 2 0 -9 -4 -17 -10 -17 -5 0 -7
-7 -3 -16 5 -13 8 -13 15 -2 7 10 8 10 6 -2 -1 -8 6 -29 15 -47 20 -37 42 -55
33 -27 -6 21 2 38 21 41 7 2 10 -4 7 -12 -4 -8 -10 -12 -15 -9 -5 3 -9 0 -9
-5 0 -15 13 -14 29 1 9 8 11 8 8 2 -4 -7 0 -14 8 -18 17 -6 21 -46 4 -46 -6 0
-8 7 -5 15 7 19 -21 32 -36 17 -6 -6 -6 -12 3 -17 8 -5 10 -4 5 3 -4 7 -2 12
4 12 7 0 10 -6 7 -14 -3 -8 1 -20 9 -26 8 -7 14 -9 14 -5 0 5 8 1 18 -8 10
-10 22 -14 27 -10 4 5 5 2 1 -5 -4 -7 -12 -10 -17 -7 -17 11 -9 -1 20 -29 l29
-28 26 29 c14 15 26 22 26 15 0 -6 5 -12 10 -12 6 0 10 6 10 14 0 9 -10 13
-30 12 -17 -1 -32 4 -34 11 -4 10 1 12 20 7 26 -7 26 -6 8 15 -19 22 -30 28
-19 11 3 -5 2 -10 -3 -10 -14 0 -46 39 -39 47 4 3 7 1 7 -5 0 -7 6 -12 13 -12
6 0 -1 12 -17 26 -15 14 -31 22 -34 19 -4 -3 0 -10 8 -15 8 -6 10 -10 4 -10
-20 0 -35 25 -23 37 8 8 6 15 -10 25 -11 7 -21 19 -21 26 0 7 -4 10 -10 7 -5
-3 -10 -1 -10 5 0 6 -11 26 -25 44 -40 53 -103 182 -110 228 -4 24 -11 50 -15
58 -14 26 8 186 34 250 14 33 20 60 15 60 -5 0 -9 -6 -9 -12 0 -7 -9 -24 -19
-37 -10 -14 -17 -32 -14 -40 4 -13 3 -13 -5 -2 -12 17 33 101 54 101 9 0 13 4
10 8 -8 13 84 97 132 122 132 65 293 75 432 24z m2609 -207 l-2 -202 -12 90
c-14 95 -19 307 -9 318 19 19 24 -23 23 -206z m-289 158 c0 -8 -4 -15 -10 -15
-5 0 -7 7 -4 15 4 8 8 15 10 15 2 0 4 -7 4 -15z m-2940 -9 c0 -2 -7 -9 -15
-16 -13 -11 -14 -10 -9 4 5 14 24 23 24 12z m2938 -36 c3 -7 0 -10 -6 -6 -7 4
-9 -6 -8 -29 3 -29 1 -33 -10 -24 -11 9 -14 8 -15 -2 0 -11 -2 -11 -6 -1 -4
10 -9 9 -24 -4 -10 -9 -16 -21 -13 -25 3 -5 1 -9 -5 -9 -22 0 -18 18 9 42 19
16 31 21 35 14 3 -6 3 -1 1 12 -2 12 0 20 5 16 8 -5 13 10 10 29 -3 14 22 2
27 -13z m-753 -58 c-6 -5 -35 -14 -65 -21 -30 -6 -124 -32 -207 -58 l-153 -46
0 -213 0 -214 148 -1 c146 -1 222 -10 192 -22 -28 -11 -340 -50 -347 -44 -7 7
-23 548 -16 556 2 4 373 61 448 70 6 1 6 -2 0 -7z m-1563 -31 c105 -41 95 17
103 -578 3 -295 3 -523 -2 -523 -13 0 -220 136 -271 177 -41 34 -42 36 -26 54
9 11 15 20 13 22 -13 9 -106 84 -117 94 -10 9 -14 100 -19 382 l-6 369 44 12
c24 6 49 13 54 15 27 12 174 -4 227 -24z m2292 -50 c154 -76 236 -203 236
-365 0 -89 -34 -190 -84 -251 -173 -210 -483 -204 -646 14 -53 70 -74 138 -74
236 0 120 38 207 131 299 105 105 300 135 437 67z m-2121 -73 c86 -102 162
-245 196 -370 12 -43 15 -46 33 -37 24 13 24 12 67 -71 38 -73 66 -142 163
-400 109 -291 163 -460 145 -460 -8 0 -155 68 -252 116 -92 47 -392 221 -399
233 -9 16 -17 1041 -8 1041 6 0 30 -24 55 -52z m-803 15 c0 -9 -3 -13 -7 -10
-3 4 -12 -1 -19 -11 -12 -14 -12 -12 -3 15 11 33 29 36 29 6z m-23 -75 c-3 -8
-6 -5 -6 6 -1 11 2 17 5 13 3 -3 4 -12 1 -19z m-20 -10 c-3 -8 -6 -5 -6 6 -1
11 2 17 5 13 3 -3 4 -12 1 -19z m31 -39 c3 -11 2 -11 -7 1 -10 13 -12 13 -20
0 -6 -8 -13 -11 -18 -7 -8 9 17 28 31 24 6 -2 11 -10 14 -18z m2385 -21 c-6
-7 -14 -27 -17 -44 -4 -20 -16 -35 -32 -42 l-24 -12 16 33 c24 47 55 89 62 83
2 -3 0 -11 -5 -18z m-2393 -39 c0 -16 -4 -28 -9 -25 -8 5 -3 56 5 56 2 0 4
-14 4 -31z m17 -46 c-3 -10 -5 -4 -5 12 0 17 2 24 5 18 2 -7 2 -21 0 -30z
m-37 -27 c0 -39 -6 -31 -14 19 -5 29 -4 36 3 25 6 -8 11 -28 11 -44z m1034
-15 c-5 -6 -44 30 -44 41 0 5 11 -2 24 -14 13 -13 22 -25 20 -27z m-1017 -3
c-3 -7 -5 -2 -5 12 0 14 2 19 5 13 2 -7 2 -19 0 -25z m2363 -30 c0 -35 6 -86
14 -115 13 -50 13 -52 -13 -85 -15 -18 -33 -42 -39 -53 -10 -19 -11 -19 -21 9
-31 79 -15 261 25 291 31 23 34 18 34 -47z m-1343 -10 c-3 -7 -5 -2 -5 12 0
14 2 19 5 13 2 -7 2 -19 0 -25z m-1017 11 c0 8 2 12 5 9 3 -3 3 -13 -1 -22 -7
-19 -24 -11 -24 12 0 15 2 15 10 2 8 -12 10 -12 10 -1z m40 -9 c0 -11 -4 -20
-10 -20 -5 0 -10 9 -10 20 0 11 5 20 10 20 6 0 10 -9 10 -20z m-35 -40 c-3 -5
1 -10 9 -10 8 0 18 5 21 10 10 16 22 12 40 -16 16 -25 16 -25 -4 -15 -24 13
-31 14 -31 3 0 -5 10 -14 23 -20 17 -8 18 -11 5 -11 -9 -1 -24 8 -32 20 -8 12
-19 18 -24 15 -11 -7 -24 19 -15 28 10 10 15 7 8 -4z m3194 -72 c0 -75 -14
-148 -28 -148 -4 0 -13 10 -20 23 -10 19 -8 31 14 80 14 32 25 71 25 87 0 17
2 30 5 30 2 0 4 -33 4 -72z m-3165 -7 c-6 -6 -24 19 -24 34 1 6 7 1 15 -9 8
-11 12 -22 9 -25z m60 -8 c-4 -16 -10 -31 -13 -35 -9 -10 -6 35 3 50 12 20 17
13 10 -15z m40 -52 c-5 -5 -33 30 -34 43 0 4 9 -2 19 -15 11 -13 17 -26 15
-28z m2334 -98 c12 -10 13 -17 4 -37 -24 -53 -63 -106 -73 -100 -18 11 -79
112 -79 131 0 10 17 40 36 67 l36 49 30 -49 c17 -27 37 -55 46 -61z m-2325 55
c-10 -11 -12 -18 -5 -18 7 0 12 -5 12 -12 0 -20 -23 9 -25 31 -1 13 4 19 16
18 17 -1 17 -3 2 -19z m3008 -36 c15 -27 15 -31 -8 -75 -13 -26 -25 -47 -27
-47 -2 0 -16 16 -30 35 l-27 35 33 40 c18 22 35 40 38 40 3 0 12 -13 21 -28z
m-904 -14 c-3 -7 -5 -2 -5 12 0 14 2 19 5 13 2 -7 2 -19 0 -25z m316 -83 c17
-12 16 -16 -15 -79 -18 -36 -37 -66 -43 -66 -7 0 -29 15 -49 33 l-38 32 37 63
36 62 27 -16 c15 -8 35 -21 45 -29z m-2316 15 c1 -11 -2 -18 -8 -15 -11 7 -12
35 -1 35 4 0 8 -9 9 -20z m2832 -11 c21 -28 22 -34 10 -57 -20 -36 -106 -98
-180 -129 -113 -46 -283 -41 -367 13 l-22 15 22 41 c13 22 29 52 37 65 10 19
19 23 35 19 11 -3 45 -11 74 -18 l53 -12 -7 -36 c-4 -19 -8 -47 -9 -62 -2 -14
-6 -31 -10 -37 -3 -6 -2 -11 4 -11 6 0 13 17 17 38 20 117 12 106 84 113 44 4
67 3 72 -5 5 -7 8 -6 8 4 0 13 49 40 72 40 6 0 32 -82 30 -92 -1 -5 3 -8 8 -8
13 0 13 1 -10 59 l-19 50 32 20 c18 11 35 21 38 21 3 0 16 -14 28 -31z m-2789
-54 c16 -19 0 -19 -26 0 -16 12 -16 14 -3 15 9 0 22 -7 29 -15z m2258 -155
c44 -33 76 -101 69 -147 -7 -43 -47 -106 -82 -129 -88 -58 -225 4 -249 113 -9
41 11 117 37 142 63 58 162 67 225 21z m-184 -301 c14 -11 26 -25 26 -31 0 -5
-20 -52 -45 -104 -85 -177 -219 -288 -379 -315 -72 -12 -194 -7 -256 11 -34 9
-36 13 -52 82 -9 40 -15 74 -14 75 1 2 38 -4 82 -13 43 -9 122 -17 174 -17 82
-1 102 2 145 23 68 33 170 139 225 233 25 42 50 77 56 77 6 0 23 -9 38 -21z"/>
<path d="M3066 4684 c-7 -19 2 -37 15 -29 12 8 12 45 0 45 -5 0 -12 -7 -15
-16z"/>
<path d="M3100 4664 c0 -8 5 -12 10 -9 6 4 8 11 5 16 -9 14 -15 11 -15 -7z"/>
<path d="M3436 3344 c-4 -9 -4 -19 -1 -22 2 -3 7 3 11 12 4 9 4 19 1 22 -2 3
-7 -3 -11 -12z"/>
<path d="M3238 2813 c7 -3 16 -2 19 1 4 3 -2 6 -13 5 -11 0 -14 -3 -6 -6z"/>
<path d="M277 3823 c3 -7 6 -13 8 -13 2 0 5 6 8 13 3 8 -1 14 -8 14 -7 0 -11
-6 -8 -14z"/>
<path d="M1355 2410 c1 -16 7 -35 13 -43 7 -8 8 -17 4 -22 -4 -4 0 -6 8 -3 20
6 20 29 -1 48 -9 8 -14 20 -12 27 2 6 0 14 -5 17 -5 3 -8 -8 -7 -24z"/>
<path d="M618 1969 c-19 -20 -10 -31 26 -34 12 -1 29 -5 39 -10 10 -4 17 -3
17 5 0 6 -5 8 -12 4 -10 -6 -10 -5 -1 7 28 35 -38 62 -69 28z m56 -21 c-5 -7
-12 -5 -21 7 -8 13 -13 14 -13 5 0 -7 -3 -11 -6 -7 -14 14 7 27 27 17 11 -6
16 -16 13 -22z"/>
<path d="M702 1968 c2 -28 12 -36 22 -19 3 4 -1 17 -9 27 -14 18 -14 17 -13
-8z"/>
<path d="M3010 2756 c-53 -11 -162 -72 -188 -105 -32 -42 -76 -114 -81 -134
-3 -12 -5 -65 -6 -117 0 -84 3 -101 28 -152 36 -74 105 -143 176 -176 48 -22
70 -26 151 -26 81 0 103 4 150 25 70 33 141 103 177 177 25 51 28 68 28 157 0
117 -17 161 -92 245 -54 60 -116 94 -198 109 -69 13 -74 13 -145 -3z m205 -27
c72 -27 153 -101 190 -176 27 -51 30 -68 30 -148 0 -77 -4 -98 -27 -147 -34
-73 -104 -142 -176 -176 -48 -22 -71 -27 -142 -27 -71 0 -94 5 -141 27 -79 36
-133 89 -171 166 -30 60 -33 75 -33 157 0 78 4 97 28 147 35 71 119 150 190
177 72 27 178 28 252 0z"/>
<path d="M2625 2330 c-16 -17 -24 -30 -19 -30 13 0 59 48 52 55 -2 3 -17 -9
-33 -25z"/>
<path d="M3203 1927 c0 -27 4 -50 9 -53 10 -6 9 43 -2 76 -7 20 -8 15 -7 -23z"/>
<path d="M2693 1820 c-77 -46 -86 -162 -17 -214 34 -24 96 -32 134 -16 37 15
70 55 70 84 -1 16 -4 14 -15 -11 -28 -65 -112 -91 -169 -54 -100 66 -56 221
62 221 45 0 94 -39 114 -90 19 -51 23 -44 7 12 -20 75 -117 110 -186 68z"/>
<path d="M2588 4733 c6 -2 18 -2 25 0 6 3 1 5 -13 5 -14 0 -19 -2 -12 -5z"/>
<path d="M2428 4723 c7 -3 16 -2 19 1 4 3 -2 6 -13 5 -11 0 -14 -3 -6 -6z"/>
<path d="M2710 4706 c0 -3 14 -12 30 -21 17 -9 30 -13 30 -11 0 3 -13 12 -30
21 -16 9 -30 13 -30 11z"/>
<path d="M2780 4666 c0 -2 8 -10 18 -17 15 -13 16 -12 3 4 -13 16 -21 21 -21
13z"/>
<path d="M2219 4593 l-24 -28 28 24 c25 23 32 31 24 31 -2 0 -14 -12 -28 -27z"/>
<path d="M2845 4600 c3 -5 8 -10 11 -10 2 0 4 5 4 10 0 6 -5 10 -11 10 -5 0
-7 -4 -4 -10z"/>
<path d="M2876 4567 c3 -10 9 -15 12 -12 3 3 0 11 -7 18 -10 9 -11 8 -5 -6z"/>
<path d="M2900 4531 c0 -6 4 -13 10 -16 6 -3 7 1 4 9 -7 18 -14 21 -14 7z"/>
<path d="M2156 4495 c-9 -26 -7 -32 5 -12 6 10 9 21 6 23 -2 3 -7 -2 -11 -11z"/>
<path d="M3560 4494 c82 -8 247 -8 237 -2 -7 4 -70 7 -142 6 -71 -1 -114 -3
-95 -4z"/>
<path d="M2924 4470 c-5 -5 -47 -11 -94 -13 l-85 -3 93 -2 c89 -2 93 -3 102
-28 6 -14 10 -41 10 -60 0 -19 4 -34 9 -34 7 0 2 49 -13 119 -7 30 -10 33 -22
21z"/>
<path d="M2598 4443 c29 -2 74 -2 100 0 26 2 2 3 -53 3 -55 0 -76 -1 -47 -3z"/>
<path d="M2403 4433 c26 -2 68 -2 95 0 26 2 4 3 -48 3 -52 0 -74 -1 -47 -3z"/>
<path d="M1788 4423 c7 -3 16 -2 19 1 4 3 -2 6 -13 5 -11 0 -14 -3 -6 -6z"/>
<path d="M2132 4410 c0 -14 2 -19 5 -12 2 6 2 18 0 25 -3 6 -5 1 -5 -13z"/>
<path d="M2157 4423 c-3 -5 25 -7 61 -5 116 5 130 9 35 10 -50 1 -94 -1 -96
-5z"/>
<path d="M1443 4383 c26 -2 68 -2 95 0 26 2 4 3 -48 3 -52 0 -74 -1 -47 -3z"/>
<path d="M1248 4373 c29 -2 74 -2 100 0 26 2 2 3 -53 3 -55 0 -76 -1 -47 -3z"/>
<path d="M1053 4363 c26 -2 67 -2 90 0 23 2 2 3 -48 3 -49 0 -68 -1 -42 -3z"/>
<path d="M858 4353 c23 -2 61 -2 85 0 23 2 4 4 -43 4 -47 0 -66 -2 -42 -4z"/>
<path d="M622 4334 c-56 -15 -147 -68 -172 -100 -12 -16 -10 -15 10 2 76 65
149 94 265 104 l80 7 -65 1 c-36 0 -89 -6 -118 -14z"/>
<path d="M413 4198 c-15 -18 -35 -58 -29 -58 2 0 13 16 25 35 20 35 22 46 4
23z"/>
<path d="M353 4093 c-9 -21 -17 -58 -19 -83 l-3 -45 8 45 c5 25 16 62 24 83 9
20 14 37 11 37 -3 0 -12 -17 -21 -37z"/>
<path d="M4431 3984 c0 -11 3 -14 6 -6 3 7 2 16 -1 19 -3 4 -6 -2 -5 -13z"/>
<path d="M4443 3900 c0 -36 2 -50 4 -32 2 17 2 47 0 65 -2 17 -4 3 -4 -33z"/>
<path d="M4432 3750 c0 -14 2 -19 5 -12 2 6 2 18 0 25 -3 6 -5 1 -5 -13z"/>
<path d="M4432 3695 c0 -16 2 -22 5 -12 2 9 2 23 0 30 -3 6 -5 -1 -5 -18z"/>
<path d="M4423 3550 c0 -30 2 -43 4 -27 2 15 2 39 0 55 -2 15 -4 2 -4 -28z"/>
<path d="M4413 3375 c0 -38 2 -53 4 -32 2 20 2 52 0 70 -2 17 -4 1 -4 -38z"/>
<path d="M4402 3255 c0 -16 2 -22 5 -12 2 9 2 23 0 30 -3 6 -5 -1 -5 -18z"/>
<path d="M4402 3185 c0 -16 2 -22 5 -12 2 9 2 23 0 30 -3 6 -5 -1 -5 -18z"/>
<path d="M4392 3080 c0 -19 2 -27 5 -17 2 9 2 25 0 35 -3 9 -5 1 -5 -18z"/>
<path d="M480 2995 c-8 -9 -8 -15 -2 -15 12 0 26 19 19 26 -2 2 -10 -2 -17
-11z"/>
<path d="M420 2950 c-8 -5 -12 -12 -9 -15 4 -3 12 1 19 10 14 17 11 19 -10 5z"/>
<path d="M4382 2910 c0 -14 2 -19 5 -12 2 6 2 18 0 25 -3 6 -5 1 -5 -13z"/>
<path d="M4371 2744 c0 -11 3 -14 6 -6 3 7 2 16 -1 19 -3 4 -6 -2 -5 -13z"/>
<path d="M4361 2584 c0 -11 3 -14 6 -6 3 7 2 16 -1 19 -3 4 -6 -2 -5 -13z"/>
<path d="M4361 2524 c0 -11 3 -14 6 -6 3 7 2 16 -1 19 -3 4 -6 -2 -5 -13z"/>
<path d="M4352 2420 c0 -14 2 -19 5 -12 2 6 2 18 0 25 -3 6 -5 1 -5 -13z"/>
<path d="M4341 2244 c0 -11 3 -14 6 -6 3 7 2 16 -1 19 -3 4 -6 -2 -5 -13z"/>
<path d="M4342 2200 c0 -14 2 -19 5 -12 2 6 2 18 0 25 -3 6 -5 1 -5 -13z"/>
<path d="M4332 2050 c0 -19 2 -27 5 -17 2 9 2 25 0 35 -3 9 -5 1 -5 -18z"/>
<path d="M414 1945 c0 -60 1 -84 3 -52 2 32 2 81 0 110 -2 29 -3 3 -3 -58z"/>
<path d="M423 1745 c0 -33 2 -45 4 -27 2 18 2 45 0 60 -2 15 -4 0 -4 -33z"/>
<path d="M431 1669 c-1 -18 26 -89 34 -89 3 0 -2 17 -9 38 -8 20 -17 44 -19
52 -5 12 -6 12 -6 -1z"/>
<path d="M476 1557 c3 -10 9 -15 12 -12 3 3 0 11 -7 18 -10 9 -11 8 -5 -6z"/>
<path d="M4008 1543 c7 -3 16 -2 19 1 4 3 -2 6 -13 5 -11 0 -14 -3 -6 -6z"/>
<path d="M3953 1533 c9 -2 23 -2 30 0 6 3 -1 5 -18 5 -16 0 -22 -2 -12 -5z"/>
<path d="M506 1515 c4 -8 11 -15 16 -15 6 0 5 6 -2 15 -7 8 -14 15 -16 15 -2
0 -1 -7 2 -15z"/>
<path d="M3898 1523 c6 -2 18 -2 25 0 6 3 1 5 -13 5 -14 0 -19 -2 -12 -5z"/>
<path d="M3788 1503 c6 -2 18 -2 25 0 6 3 1 5 -13 5 -14 0 -19 -2 -12 -5z"/>
<path d="M3733 1493 c9 -2 23 -2 30 0 6 3 -1 5 -18 5 -16 0 -22 -2 -12 -5z"/>
<path d="M3678 1483 c6 -2 18 -2 25 0 6 3 1 5 -13 5 -14 0 -19 -2 -12 -5z"/>
<path d="M3628 1473 c6 -2 18 -2 25 0 6 3 1 5 -13 5 -14 0 -19 -2 -12 -5z"/>
<path d="M3508 1453 c6 -2 18 -2 25 0 6 3 1 5 -13 5 -14 0 -19 -2 -12 -5z"/>
<path d="M3408 1433 c6 -2 18 -2 25 0 6 3 1 5 -13 5 -14 0 -19 -2 -12 -5z"/>
<path d="M3255 1410 c-27 -7 -27 -8 -5 -8 14 0 39 4 55 8 27 7 27 8 5 8 -14 0
-38 -4 -55 -8z"/>
<path d="M3188 1393 c6 -2 18 -2 25 0 6 3 1 5 -13 5 -14 0 -19 -2 -12 -5z"/>
<path d="M3133 1383 c9 -2 23 -2 30 0 6 3 -1 5 -18 5 -16 0 -22 -2 -12 -5z"/>
<path d="M3078 1373 c6 -2 18 -2 25 0 6 3 1 5 -13 5 -14 0 -19 -2 -12 -5z"/>
<path d="M3018 1363 c6 -2 18 -2 25 0 6 3 1 5 -13 5 -14 0 -19 -2 -12 -5z"/>
<path d="M2968 1353 c6 -2 18 -2 25 0 6 3 1 5 -13 5 -14 0 -19 -2 -12 -5z"/>
<path d="M2908 1343 c6 -2 18 -2 25 0 6 3 1 5 -13 5 -14 0 -19 -2 -12 -5z"/>
<path d="M2858 1333 c6 -2 18 -2 25 0 6 3 1 5 -13 5 -14 0 -19 -2 -12 -5z"/>
<path d="M2803 1323 c9 -2 23 -2 30 0 6 3 -1 5 -18 5 -16 0 -22 -2 -12 -5z"/>
<path d="M2748 1313 c6 -2 18 -2 25 0 6 3 1 5 -13 5 -14 0 -19 -2 -12 -5z"/>
<path d="M2693 1303 c9 -2 23 -2 30 0 6 3 -1 5 -18 5 -16 0 -22 -2 -12 -5z"/>
<path d="M1708 1123 c6 -2 18 -2 25 0 6 3 1 5 -13 5 -14 0 -19 -2 -12 -5z"/>
<path d="M1653 1113 c9 -2 23 -2 30 0 6 3 -1 5 -18 5 -16 0 -22 -2 -12 -5z"/>
<path d="M1598 1103 c6 -2 18 -2 25 0 6 3 1 5 -13 5 -14 0 -19 -2 -12 -5z"/>
<path d="M1505 1090 c-27 -7 -27 -8 -5 -8 14 0 39 4 55 8 27 7 27 8 5 8 -14 0
-38 -4 -55 -8z"/>
<path d="M1225 403 c-35 -9 -68 -37 -81 -70 -15 -35 -18 -81 -6 -100 4 -6 7
13 7 42 0 60 19 89 73 112 17 7 32 15 32 18 0 3 -1 4 -2 4 -2 -1 -12 -4 -23
-6z"/>
<path d="M1307 385 c56 -24 83 -89 63 -150 -24 -72 -115 -97 -184 -50 -31 21
-35 22 -27 6 21 -38 118 -53 170 -26 37 19 64 85 56 135 -8 45 -55 100 -87
100 -20 -1 -19 -3 9 -15z"/>
<path d="M1086 260 c8 -48 44 -110 74 -128 l25 -14 -26 24 c-31 29 -46 54 -65
112 -13 39 -13 39 -8 6z"/>
<path d="M1340 129 c-26 -15 -49 -19 -92 -17 -31 2 -54 0 -51 -4 14 -24 159 2
177 31 9 14 8 14 -34 -10z"/>
</g>
</svg>
