<svg height="15" viewBox="0 0 64 64" width="15" xmlns="http://www.w3.org/2000/svg"><g id="Document-files-2" data-name="Document-files"><path d="m49 15h-8a2.006 2.006 0 0 1 -2-2v-8l4 4z" fill="#78b9eb"/><path d="m42 55h-34a5 5 0 0 1 0-10h34a5 5 0 0 0 0 10z" fill="#78b9eb"/><path d="m61 33v22a4 4 0 1 1 -8 0v-22a4 4 0 1 0 8 0z" fill="#78b9eb"/><g fill="#006df0"><path d="m24 15h10v2h-10z"/><path d="m14 21h30v2h-30z"/><path d="m14 27h30v2h-30z"/><path d="m32 33h12v2h-12z"/><path d="m61 32a1 1 0 0 0 -1 1 3 3 0 0 1 -6 0v-24a1 1 0 0 0 -1-1h-9.59l-3.7-3.71a1.033 1.033 0 0 0 -.71-.29h-30a1 1 0 0 0 -1 1v39a6 6 0 0 0 0 12h4v3a1 1 0 0 0 1 1h44a5 5 0 0 0 5-5v-22a1 1 0 0 0 -1-1zm-21-24.59 6.59 6.59h-5.59a1 1 0 0 1 -1-1zm-30-1.41h28v7a3.009 3.009 0 0 0 3 3h7v34a4 4 0 0 1 -4 4h-2a4 4 0 0 1 0-8 1 1 0 0 0 0-2h-32zm-2 48a4 4 0 0 1 0-8h29.53a5.994 5.994 0 0 0 0 8zm6 4v-2h30a6 6 0 0 0 6-6v-35a1.033 1.033 0 0 0 -.29-.71l-4.3-4.29h6.59v45a4.924 4.924 0 0 0 1.03 3zm46-3a3 3 0 0 1 -6 0v-18a5 5 0 0 0 6 0z"/></g></g></svg>